# xmcd CD database file
#
# Track frame offsets:
#	150
#	14026
#	27644
#	43101
#	58696
#	71694
#	87626
#
# Disc length: 1365 seconds
#
# Revision: 0
# Processed by: cddbd v1.5.2PL0 Copyright (c) Steve Scherf et al.
# Submitted via: CDex 1.70beta2
#
DISCID=67055307
DTITLE=CharlieParker - COOL JAZZ COLLECTION 7
DYEAR=2008
DGENRE=Jazz
TTITLE0=Now's the Time
TTITLE1=Confirmation
TTITLE2=Lover Man
TTITLE3=K.C.Blues
TTITLE4=Night and Day
TTITLE5=Autumn in New York
TTITLE6=Everything Happens to Me
EXTD=YEAR: 2008
EXTT0=
EXTT1=
EXTT2=
EXTT3=
EXTT4=
EXTT5=
EXTT6=
PLAYORDER=
